<?xml version="1.0" encoding="UTF-8"?>
<svg width="973px" height="612px" viewBox="0 0 973 612" version="1.1" xmlns="http://www.w3.org/2000/svg" xmlns:xlink="http://www.w3.org/1999/xlink">
    <!-- Generator: Sketch 58 (84663) - https://sketch.com -->
    <title>Artboard</title>
    <desc>Created with Sketch.</desc>
    <g id="Artboard" stroke="none" stroke-width="1" fill="none" fill-rule="evenodd">
        <path d="M316.694525,610.766991 C368.254183,563.406252 350.541693,465.444921 409.330757,396.192395 C468.119821,326.93987 825.264705,36.4270863 896.7654,-1.09601558 C968.266094,-38.6191175 992.278367,-48.3931403 956.793535,-1.03842061 C921.308704,46.3162991 775.624736,291.92269 714.269827,375.421663 C652.914919,458.920635 855.321002,566.713179 812.443762,611.85562 C769.566522,656.998061 265.134867,658.12773 316.694525,610.766991 Z" id="Path-2-Copy" fill="#2BD6E2"></path>
        <path d="M262.141672,612.278743 C313.744762,564.880355 296.017352,466.841151 354.855938,397.533574 C413.694524,328.225998 771.140257,37.4822761 842.701182,-0.0706540701 C914.262106,-37.6235843 938.294606,-47.4053768 902.779883,-0.0130133183 C867.26516,47.3793502 703.393879,298.61129 641.987286,382.176639 C580.580694,465.741987 743.206427,567.100416 700.293068,612.278743 C657.37971,657.457069 210.538582,659.67713 262.141672,612.278743 Z" id="Path-2" fill="#B941E9"></path>
        <path d="M185.429166,612.793422 C237.061243,565.433021 219.323875,467.472389 278.195512,398.220358 C337.067149,328.968327 713.356104,37.4578481 784.957226,-0.0649859615 C856.558349,-37.58782 885.31765,-47.4193677 849.782978,-0.0649859615 C814.248305,47.2893957 632.905726,300.665551 571.46464,384.163928 C510.023554,467.662304 635.629642,566.651535 592.692178,611.793653 C549.754714,656.935772 133.797088,660.153823 185.429166,612.793422 Z" id="Path-2" fill="#DD45D3"></path>
        <path d="M121.645233,611.280342 C173.256179,563.884138 155.52607,465.84945 214.373613,396.545067 C273.221156,327.240683 666.005079,36.5103561 737.576897,-1.04084405 C809.148715,-38.5920442 830.727567,-48.4310242 795.207438,-1.04084405 C759.687309,46.3493361 554.24784,312.983568 492.8319,396.545067 C431.41596,480.106566 550.442604,566.104097 507.522713,611.280342 C464.602822,656.456587 70.0342878,658.676546 121.645233,611.280342 Z" id="Path-2" fill="#ED7193"></path>
        <path d="M45.5216738,612.280342 C97.1262799,564.884138 79.398349,466.84945 138.238663,397.545067 C197.078978,328.240683 589.814655,37.5103561 661.377682,-0.0408440467 C732.940709,-37.5920442 773.426005,-47.4310242 737.910239,-0.0408440467 C702.394473,47.3493361 469.687968,336.653643 408.279572,420.215142 C346.871176,503.776641 485.993362,567.104097 443.078743,612.280342 C400.164124,657.456587 -6.08293242,659.676546 45.5216738,612.280342 Z" id="Path-2" fill="#FD9D52"></path>
    </g>
</svg>