<?xml version="1.0" standalone="no"?>
<svg
  width="600"
  height="600"
  viewBox="0 0 600 600"
  xmlns="http://www.w3.org/2000/svg"
>
  <g transform="translate(300,300)">
    <path d="M120,-175.5C136.2,-129.3,116.8,-73.3,118.8,-26.3C120.7,20.7,143.9,58.6,138.1,90C132.2,121.3,97.2,146.2,59.4,157.4C21.7,168.5,-18.9,166,-43.3,145.6C-67.7,125.2,-75.8,86.8,-100.7,53.4C-125.6,20.1,-167.2,-8.4,-170.1,-36.6C-173,-64.9,-137.3,-93,-102.5,-135.8C-67.7,-178.7,-33.9,-236.3,9,-247.1C51.9,-257.8,103.7,-221.6,120,-175.5Z" fill="#2bd6e2" />
  </g>
</svg>
    