<?xml version="1.0" standalone="no"?>
<svg
  width="600"
  height="600"
  viewBox="0 0 600 600"
  xmlns="http://www.w3.org/2000/svg"
>
  <g transform="translate(300,300)">
    <path d="M65,-79.1C95,-81.8,137.6,-82,153.2,-64.9C168.9,-47.8,157.7,-13.4,137.6,9C117.6,31.3,88.6,41.5,76.8,81C65.1,120.5,70.4,189.3,49.9,216.7C29.4,244,-17,230,-67.3,219.6C-117.6,209.2,-171.8,202.5,-176.4,168.7C-181,134.9,-136,74,-129.9,27C-123.8,-20.1,-156.5,-53.2,-146.9,-64.1C-137.3,-75,-85.4,-63.6,-53.9,-60.2C-22.3,-56.8,-11.2,-61.4,3.2,-66.3C17.5,-71.2,35,-76.4,65,-79.1Z" fill="#fb8574" />
  </g>
</svg>
    