<?xml version="1.0" standalone="no"?>
<svg
  width="600"
  height="600"
  viewBox="0 0 600 600"
  xmlns="http://www.w3.org/2000/svg"
>
  <g transform="translate(300,300)">
    <path d="M87.6,-115.5C129.5,-109.4,190.3,-112,193.8,-92.1C197.4,-72.1,143.7,-29.6,109.6,-3.8C75.4,21.9,60.8,30.9,50.5,44.9C40.2,58.9,34.3,77.9,15.8,108.2C-2.7,138.5,-33.9,180.1,-64.5,186.3C-95,192.5,-125,163.4,-124.4,127.9C-123.7,92.4,-92.6,50.6,-110.7,8.2C-128.8,-34.3,-196.3,-77.4,-193.2,-89.9C-190.1,-102.5,-116.4,-84.5,-72.4,-89.6C-28.5,-94.6,-14.2,-122.8,4.3,-129.5C22.9,-136.3,45.8,-121.6,87.6,-115.5Z" fill="#718096" />
  </g>
</svg>
    